HIERARCHY
ROOT Hips
{
	OFFSET 0.00000 0.00000 0.00000
	CHANNELS 6 Xposition Yposition Zposition Zrotation Yrotation Xrotation 
	JOINT LHipJoint
	{
		OFFSET 0 0 0
		CHANNELS 3 Zrotation Yrotation Xrotation
		JOINT LeftUpLeg
		{
			OFFSET 1.61328 -1.70571 0.84375
			CHANNELS 3 Zrotation Yrotation Xrotation
			JOINT LeftLeg
			{
				OFFSET 2.32400 -6.38513 0.00000
				CHANNELS 3 Zrotation Yrotation Xrotation
				JOINT LeftFoot
				{
					OFFSET 2.58843 -7.11166 0.00000
					CHANNELS 3 Zrotation Yrotation Xrotation
					JOINT LeftToeBase
					{
						OFFSET 0.17200 -0.47257 2.47970
						CHANNELS 3 Zrotation Yrotation Xrotation
						End Site
						{
							OFFSET 0.00000 -0.00000 1.26912
						}
					}
				}
			}
		}
	}
	JOINT RHipJoint
	{
		OFFSET 0 0 0
		CHANNELS 3 Zrotation Yrotation Xrotation
		JOINT RightUpLeg
		{
			OFFSET -1.49930 -1.70570 0.84375
			CHANNELS 3 Zrotation Yrotation Xrotation
			JOINT RightLeg
			{
				OFFSET -2.30458 -6.33178 0.00000
				CHANNELS 3 Zrotation Yrotation Xrotation
				JOINT RightFoot
				{
					OFFSET -2.62261 -7.20556 0.00000
					CHANNELS 3 Zrotation Yrotation Xrotation
					JOINT RightToeBase
					{
						OFFSET -0.18709 -0.51403 2.51340
						CHANNELS 3 Zrotation Yrotation Xrotation
						End Site
						{
							OFFSET -0.00000 -0.00000 1.28858
						}
					}
				}
			}
		}
	}
	JOINT LowerBack
	{
		OFFSET 0 0 0
		CHANNELS 3 Zrotation Yrotation Xrotation
		JOINT Spine
		{
			OFFSET -0.03798 2.19274 -0.19881
			CHANNELS 3 Zrotation Yrotation Xrotation
			JOINT Spine1
			{
				OFFSET -0.00024 2.19460 0.05248
				CHANNELS 3 Zrotation Yrotation Xrotation
				JOINT Neck
				{
					OFFSET 0 0 0
					CHANNELS 3 Zrotation Yrotation Xrotation
					JOINT Neck1
					{
						OFFSET -0.00746 1.82323 0.17286
						CHANNELS 3 Zrotation Yrotation Xrotation
						JOINT Head
						{
							OFFSET 0.11826 1.82121 -0.27841
							CHANNELS 3 Zrotation Yrotation Xrotation
							End Site
							{
								OFFSET 0.03496 1.85543 -0.11495
							}
						}
					}
				}
				JOINT LeftShoulder
				{
					OFFSET 0 0 0
					CHANNELS 3 Zrotation Yrotation Xrotation
					JOINT LeftArm
					{
						OFFSET 3.71926 0.78840 0.25473
						CHANNELS 3 Zrotation Yrotation Xrotation
						JOINT LeftForeArm
						{
							OFFSET 5.37587 -0.00000 0.00000
							CHANNELS 3 Zrotation Yrotation Xrotation
							JOINT LeftHand
							{
								OFFSET 3.35977 -0.00000 0.00000
								CHANNELS 3 Zrotation Yrotation Xrotation
								JOINT LeftFingerBase
								{
									OFFSET 0 0 0
									CHANNELS 3 Zrotation Yrotation Xrotation
									JOINT LeftHandIndex1
									{
										OFFSET 0.56186 -0.00000 0.00000
										CHANNELS 3 Zrotation Yrotation Xrotation
										End Site
										{
											OFFSET 0.45299 -0.00000 0.00000
										}
									}
								}
								JOINT LThumb
								{
									OFFSET 0 0 0
									CHANNELS 3 Zrotation Yrotation Xrotation
									End Site
									{
										OFFSET 0.45990 -0.00000 0.45990
									}
								}
							}
						}
					}
				}
				JOINT RightShoulder
				{
					OFFSET 0 0 0
					CHANNELS 3 Zrotation Yrotation Xrotation
					JOINT RightArm
					{
						OFFSET -3.65136 0.56074 0.01624
						CHANNELS 3 Zrotation Yrotation Xrotation
						JOINT RightForeArm
						{
							OFFSET -5.22819 -0.00000 0.00000
							CHANNELS 3 Zrotation Yrotation Xrotation
							JOINT RightHand
							{
								OFFSET -3.40764 -0.00000 0.00000
								CHANNELS 3 Zrotation Yrotation Xrotation
								JOINT RightFingerBase
								{
									OFFSET 0 0 0
									CHANNELS 3 Zrotation Yrotation Xrotation
									JOINT RightHandIndex1
									{
										OFFSET -0.58325 -0.00000 0.00000
										CHANNELS 3 Zrotation Yrotation Xrotation
										End Site
										{
											OFFSET -0.47024 -0.00000 0.00000
										}
									}
								}
								JOINT RThumb
								{
									OFFSET 0 0 0
									CHANNELS 3 Zrotation Yrotation Xrotation
									End Site
									{
										OFFSET -0.47742 -0.00000 0.47742
									}
								}
							}
						}
					}
				}
			}
		}
	}
}
MOTION
Frames: 5
Frame Time: .0083333
29.6083 16.9448 -8.4723 -715.5290 -79.9408 715.3450 0.0000 0.0000 0.0000 -17.1206 0.6024 -20.0928 6.6700 15.0476 47.6151 0.0088 11.1411 -15.9872 0.1093 -2.1321 -5.8709 0.0000 0.0000 0.0000 24.6884 -2.8395 -12.2458 -2.7138 -10.2166 29.6812 -1.9161 5.8065 -24.9731 -1.0182 -6.4197 18.0072 3.9400 0.3315 0.0264 1.9687 -0.2791 9.7685 -0.1447 -0.0380 10.3704 -0.9407 -2.8201 -1.9032 4.5999 -5.9252 26.4649 1.2044 -2.7601 8.7122 0.0000 -0.0000 0.0000 -89.7924 -5.8490 33.4572 24.6737 -35.8687 -8.0980 -0.0000 0.0000 -11.8681 20.8169 15.4452 5.7817 -7.1250 0.0000 -0.0000 -6.4628 46.3449 -0.2154 0.0000 -0.0000 0.0000 84.8009 18.9628 28.8271 -13.1752 21.5434 -2.5173 0.0000 -0.0000 -2.7663 -22.3339 2.9342 -1.2047 7.1250 -0.0000 -0.0000 3.2599 -26.8049 1.4417
29.5575 16.9397 -8.4802 -715.6570 -79.9231 715.4410 0.0000 0.0000 0.0000 -17.1511 0.2126 -20.3944 6.5072 14.9025 46.9851 0.0583 10.9510 -16.4248 0.1043 -2.0829 -5.7348 0.0000 0.0000 0.0000 24.7827 -2.8729 -12.0349 -2.7165 -10.2214 29.6966 -1.9308 5.7847 -25.0752 -1.0374 -6.4781 18.1781 3.9898 0.3403 0.0466 1.9759 -0.2707 9.7766 -0.1639 -0.0303 10.3685 -0.9293 -2.8117 -1.8972 4.6395 -5.9270 26.4814 1.2157 -2.7564 8.7180 -0.0000 0.0000 0.0000 -89.6896 -5.8046 33.6931 24.8657 -36.0664 -8.2107 -0.0000 0.0000 -11.8146 20.8455 15.3682 5.7624 -7.1250 0.0000 -0.0000 -6.4189 46.2678 -0.2017 -0.0000 0.0000 0.0000 84.7494 19.1182 29.1235 -13.2282 21.6207 -2.5368 0.0000 -0.0000 -2.8333 -22.5382 3.2846 -1.3621 7.1250 -0.0000 -0.0000 3.0997 -26.4219 1.3985
29.5065 16.9357 -8.4874 -715.7540 -79.9047 715.5100 0.0000 0.0000 0.0000 -17.1908 -0.1608 -20.6921 6.3403 14.7502 46.3325 0.1050 10.7504 -16.7952 0.1016 -2.0556 -5.6592 0.0000 0.0000 0.0000 24.8679 -2.9190 -11.8112 -2.7137 -10.2164 29.6805 -1.9453 5.7724 -25.1748 -1.0508 -6.5183 18.2960 4.0347 0.3475 0.0628 1.9810 -0.2643 9.7855 -0.1829 -0.0238 10.3698 -0.9162 -2.7994 -1.8951 4.6754 -5.9224 26.4986 1.2260 -2.7498 8.7243 0.0000 0.0000 0.0000 -89.5826 -5.7654 33.9127 25.0291 -36.2338 -8.3071 -0.0000 0.0000 -11.8348 20.8752 15.3195 5.7536 -7.1250 0.0000 -0.0000 -6.3804 46.2207 -0.1930 0.0000 0.0000 0.0000 84.7043 19.2676 29.4087 -13.2712 21.6834 -2.5526 0.0000 -0.0000 -2.8775 -22.7396 3.6111 -1.5121 7.1250 -0.0000 -0.0000 2.9437 -26.0636 1.3526
29.4552 16.9329 -8.4940 -715.8200 -79.8849 715.5520 0.0000 0.0000 0.0000 -17.2412 -0.5155 -20.9867 6.1701 14.5912 45.6606 0.1465 10.5482 -17.0854 0.1019 -2.0589 -5.6685 0.0000 0.0000 0.0000 24.9424 -2.9850 -11.5769 -2.7048 -10.2010 29.6302 -1.9578 5.7696 -25.2589 -1.0610 -6.5491 18.3862 4.0745 0.3530 0.0749 1.9847 -0.2599 9.7942 -0.2006 -0.0186 10.3732 -0.9034 -2.7839 -1.8909 4.7084 -5.9124 26.5137 1.2359 -2.7410 8.7292 -0.0000 0.0000 0.0000 -89.4783 -5.7342 34.1090 25.1587 -36.3658 -8.3838 -0.0000 0.0000 -11.9168 20.8982 15.3013 5.7539 -7.1250 0.0000 -0.0000 -6.3549 46.2046 -0.1897 -0.0000 0.0000 0.0000 84.6647 19.4133 29.6779 -13.3023 21.7285 -2.5641 0.0000 -0.0000 -2.9106 -22.9092 3.8658 -1.6320 7.1250 -0.0000 -0.0000 2.8137 -25.7829 1.3113
29.4036 16.9314 -8.4999 -715.8720 -79.8633 715.5850 0.0000 0.0000 0.0000 -17.2985 -0.8508 -21.2780 5.9982 14.4266 44.9745 0.1851 10.3268 -17.3106 0.1021 -2.0606 -5.6731 0.0000 0.0000 0.0000 25.0091 -3.0781 -11.3317 -2.6892 -10.1742 29.5426 -1.9662 5.7753 -25.3148 -1.0704 -6.5771 18.4683 4.1138 0.3575 0.0809 1.9872 -0.2571 9.8043 -0.2195 -0.0141 10.3818 -0.8902 -2.7671 -1.8901 4.7399 -5.9001 26.5289 1.2453 -2.7311 8.7347 0.0000 -0.0000 0.0000 -89.3783 -5.7145 34.2793 25.2544 -36.4628 -8.4406 -0.0000 0.0000 -12.0473 20.9048 15.3088 5.7585 -7.1250 0.0000 -0.0000 -6.3505 46.2134 -0.1909 0.0000 -0.0000 0.0000 84.6320 19.5544 29.9266 -13.3260 21.7630 -2.5729 0.0000 -0.0000 -2.9459 -23.0273 4.0314 -1.7116 7.1250 -0.0000 -0.0000 2.7239 -25.5998 1.2809
